<svg width="1728" height="800" viewBox="0 0 1728 800" fill="none" xmlns="http://www.w3.org/2000/svg">
<g clip-path="url(#clip0_5000_6500)">
<g clip-path="url(#clip1_5000_6500)">
<g filter="url(#filter0_f_5000_6500)">
<ellipse cx="981" cy="1135" rx="1662" ry="1039" fill="url(#paint0_linear_5000_6500)" fill-opacity="0.1"/>
</g>
<g filter="url(#filter1_f_5000_6500)">
<path d="M2153.5 606.5C2153.5 662.281 1573.97 159 819 159C64.0267 159 -428.5 511.281 -428.5 455.5C-428.5 399.719 64.0267 52 819 52C1573.97 52 2153.5 550.719 2153.5 606.5Z" fill="url(#paint1_linear_5000_6500)" fill-opacity="0.08"/>
</g>
<path d="M2642.5 1181C2642.5 1468.51 2456.62 1728.87 2155.95 1917.38C1855.27 2105.89 1439.87 2222.5 981 2222.5C522.13 2222.5 106.726 2105.89 -193.946 1917.38C-494.624 1728.87 -680.5 1468.51 -680.5 1181C-680.5 893.493 -494.624 633.13 -193.946 444.618C106.726 256.111 522.13 139.5 981 139.5C1439.87 139.5 1855.27 256.111 2155.95 444.618C2456.62 633.13 2642.5 893.493 2642.5 1181Z" stroke="#ED693C"/>
<path d="M2642 1225C2642 1512.55 2456.33 1773.03 2155.83 1961.67C1855.34 2150.3 1440.15 2267 981.5 2267C522.848 2267 107.663 2150.3 -192.826 1961.67C-493.329 1773.03 -679 1512.55 -679 1225C-679 937.451 -493.329 676.974 -192.826 488.335C107.663 299.703 522.848 183 981.5 183C1440.15 183 1855.34 299.703 2155.83 488.335C2456.33 676.974 2642 937.451 2642 1225Z" stroke="#ED693C" stroke-width="2"/>
<path d="M2636.82 1371.87C2618.79 1658.54 2417.22 1899.54 2105.74 2057.4C1794.27 2215.27 1372.96 2289.96 915.649 2244.02C458.336 2198.09 51.652 2040.24 -236.179 1822.18C-524.017 1604.12 -692.935 1325.91 -674.907 1039.24C-656.878 752.566 -455.307 511.566 -143.827 353.7C167.645 195.837 588.953 121.148 1046.27 167.081C1503.58 213.014 1910.26 370.867 2198.09 588.924C2485.93 806.986 2654.85 1085.2 2636.82 1371.87Z" stroke="#DA6137" stroke-opacity="0.8"/>
<path d="M2637.05 1416.13C2619.02 1702.8 2417.45 1943.8 2105.97 2101.67C1794.5 2259.53 1373.19 2334.22 915.874 2288.29C458.561 2242.35 51.8771 2084.5 -235.954 1866.44C-523.792 1648.38 -692.71 1370.17 -674.681 1083.5C-656.653 796.829 -455.082 555.829 -143.602 397.963C167.87 240.1 589.178 165.41 1046.49 211.343C1503.8 257.276 1910.49 415.13 2198.32 633.187C2486.16 851.249 2655.08 1129.46 2637.05 1416.13Z" stroke="#DA6137" stroke-opacity="0.5"/>
<path d="M2641.14 1122.37C2648.65 1409.79 2469.73 1677.83 2174.22 1878.84C1878.72 2079.84 1466.7 2213.75 1008.19 2232.91C549.687 2252.06 131.564 2152.82 -173.798 1976.93C-479.166 1801.02 -671.702 1548.5 -679.22 1261.08C-686.738 973.664 -507.818 705.622 -212.309 504.618C83.1942 303.618 495.219 169.703 953.724 150.549C1412.23 131.395 1830.35 230.63 2135.71 406.529C2441.08 582.431 2633.62 834.955 2641.14 1122.37Z" stroke="#FEDB63" stroke-opacity="0.8"/>
<path d="M2641.36 1166.64C2648.88 1454.05 2469.96 1722.09 2174.45 1923.1C1878.95 2124.1 1466.92 2258.01 1008.42 2277.17C549.912 2296.32 131.788 2197.09 -173.573 2021.19C-478.942 1845.29 -671.478 1592.76 -678.996 1305.34C-686.514 1017.93 -507.594 749.885 -212.084 548.881C83.4188 347.881 495.444 213.966 953.948 194.812C1412.45 175.658 1830.58 274.893 2135.94 450.791C2441.31 626.694 2633.84 879.218 2641.36 1166.64Z" stroke="#FEDB63" stroke-opacity="0.6"/>
<path d="M2640.26 1282.67C2629.74 1569.94 2434.58 1819.22 2127.4 1990.01C1820.22 2160.79 1401.1 2253.03 942.833 2226.22C484.568 2199.4 73.9805 2058.61 -219.394 1852.69C-512.775 1646.77 -688.874 1375.76 -678.35 1088.49C-667.826 801.227 -472.664 551.943 -165.482 381.158C141.693 210.377 560.818 118.137 1019.08 144.951C1477.35 171.765 1887.93 312.553 2181.31 518.473C2474.69 724.398 2650.79 995.406 2640.26 1282.67Z" stroke="#FDC60B"/>
<path d="M2640.49 1326.93C2629.96 1614.2 2434.8 1863.49 2127.62 2034.27C1820.45 2205.05 1401.32 2297.29 943.057 2270.48C484.793 2243.66 74.2051 2102.88 -219.169 1896.96C-512.55 1691.03 -688.65 1420.02 -678.125 1132.76C-667.601 845.49 -472.44 596.205 -165.258 425.42C141.917 254.639 561.043 162.4 1019.31 189.214C1477.57 216.028 1888.16 356.815 2181.53 562.735C2474.91 768.66 2651.01 1039.67 2640.49 1326.93Z" stroke="#FDC60B" stroke-opacity="0.6"/>
<path d="M2640.4 1208.59C2638.75 1495.93 2451.56 1753.31 2149.94 1937.1C1848.34 2120.88 1432.44 2230.98 973.741 2223.78C515.042 2216.58 100.487 2093.44 -198.948 1900.22C-498.396 1706.99 -682.587 1443.78 -680.932 1156.44C-679.278 869.088 -492.091 611.71 -190.472 427.921C111.134 244.141 527.031 134.039 985.73 141.241C1444.43 148.444 1858.98 271.585 2158.42 464.803C2457.87 658.029 2642.06 921.239 2640.4 1208.59Z" stroke="url(#paint2_linear_5000_6500)" stroke-opacity="0.1" stroke-width="2"/>
<path d="M2641.13 1252.86C2639.47 1540.44 2452.13 1797.95 2150.43 1981.79C1848.73 2165.63 1432.74 2275.75 973.963 2268.54C515.185 2261.34 100.535 2138.18 -198.991 1944.9C-498.524 1751.62 -682.863 1488.27 -681.207 1200.69C-679.552 913.109 -492.213 655.596 -190.51 471.756C111.187 287.92 527.18 177.8 985.958 185.004C1444.74 192.207 1859.39 315.369 2158.91 508.646C2458.44 701.927 2642.78 965.275 2641.13 1252.86Z" stroke="url(#paint3_linear_5000_6500)" stroke-opacity="0.1"/>
<path d="M2633.46 1399.23C2613.8 1685.51 2411.06 1923.33 2098.87 2076.34C1786.69 2229.35 1365.2 2297.46 908.389 2244.36C451.582 2191.25 46.0494 2026.99 -240.332 1804.4C-526.726 1581.79 -693.835 1300.97 -674.172 1014.69C-654.509 728.417 -451.775 490.59 -139.581 337.578C172.598 184.574 594.092 116.459 1050.9 169.566C1507.7 222.674 1913.24 386.936 2199.62 609.528C2486.01 832.13 2653.12 1112.95 2633.46 1399.23Z" stroke="url(#paint4_linear_5000_6500)" stroke-opacity="0.3" stroke-width="2"/>
<path d="M2634.18 1443.55C2614.5 1730.06 2411.61 1968.01 2099.33 2121.06C1787.05 2274.11 1365.46 2342.23 908.579 2289.12C451.695 2236 46.0685 2071.71 -240.399 1849.05C-526.874 1626.39 -694.123 1345.41 -674.444 1058.9C-654.765 772.388 -451.872 534.442 -139.591 381.387C172.683 228.336 594.273 160.214 1051.16 213.33C1508.04 266.446 1913.67 430.738 2200.14 653.398C2486.61 876.062 2653.86 1157.04 2634.18 1443.55Z" stroke="url(#paint5_linear_5000_6500)" stroke-opacity="0.7"/>
</g>
</g>
<defs>
<filter id="filter0_f_5000_6500" x="-721" y="56" width="3404" height="2158" filterUnits="userSpaceOnUse" color-interpolation-filters="sRGB">
<feFlood flood-opacity="0" result="BackgroundImageFix"/>
<feBlend mode="normal" in="SourceGraphic" in2="BackgroundImageFix" result="shape"/>
<feGaussianBlur stdDeviation="20" result="effect1_foregroundBlur_5000_6500"/>
</filter>
<filter id="filter1_f_5000_6500" x="-548.5" y="-68" width="2822" height="798.816" filterUnits="userSpaceOnUse" color-interpolation-filters="sRGB">
<feFlood flood-opacity="0" result="BackgroundImageFix"/>
<feBlend mode="normal" in="SourceGraphic" in2="BackgroundImageFix" result="shape"/>
<feGaussianBlur stdDeviation="60" result="effect1_foregroundBlur_5000_6500"/>
</filter>
<linearGradient id="paint0_linear_5000_6500" x1="2643" y1="1135" x2="946.839" y2="-845.244" gradientUnits="userSpaceOnUse">
<stop stop-color="#ED693C"/>
<stop offset="0.9036" stop-color="#FDC60B"/>
</linearGradient>
<linearGradient id="paint1_linear_5000_6500" x1="2218" y1="176" x2="2184.56" y2="-154.34" gradientUnits="userSpaceOnUse">
<stop stop-color="#ED693C"/>
<stop offset="0.9036" stop-color="#FDC60B"/>
</linearGradient>
<linearGradient id="paint2_linear_5000_6500" x1="-681.91" y1="1156.42" x2="1159.46" y2="3349.69" gradientUnits="userSpaceOnUse">
<stop offset="0.302083" stop-color="#121212"/>
<stop offset="0.9036" stop-color="#404040"/>
</linearGradient>
<linearGradient id="paint3_linear_5000_6500" x1="-681.685" y1="1200.68" x2="1159.68" y2="3393.96" gradientUnits="userSpaceOnUse">
<stop offset="0.302083" stop-color="#121212"/>
<stop offset="0.9036" stop-color="#404040"/>
</linearGradient>
<linearGradient id="paint4_linear_5000_6500" x1="-675.143" y1="1014.58" x2="1000.36" y2="3401.18" gradientUnits="userSpaceOnUse">
<stop offset="0.302083" stop-color="#121212"/>
<stop offset="0.9036" stop-color="#404040"/>
</linearGradient>
<linearGradient id="paint5_linear_5000_6500" x1="-674.919" y1="1058.84" x2="1000.58" y2="3445.44" gradientUnits="userSpaceOnUse">
<stop offset="0.302083" stop-color="#121212"/>
<stop offset="0.9036" stop-color="#404040"/>
</linearGradient>
<clipPath id="clip0_5000_6500">
<rect width="1728" height="800" fill="white"/>
</clipPath>
<clipPath id="clip1_5000_6500">
<rect width="1728" height="2117" fill="white" transform="translate(0 -2)"/>
</clipPath>
</defs>
</svg>
